<svg width="360" height="800" viewBox="0 0 360 800" fill="none" xmlns="http://www.w3.org/2000/svg">
<g clip-path="url(#clip0_2_2)">
<rect width="360" height="800" fill="#350000"/>
<path d="M334.5 16.25H332.625C332.28 16.25 332 16.5297 332 16.875V24.375C332 24.7203 332.28 25 332.625 25H334.5C334.845 25 335.125 24.7203 335.125 24.375V16.875C335.125 16.5297 334.845 16.25 334.5 16.25ZM329.5 20H327.625C327.28 20 327 20.2797 327 20.625V24.375C327 24.7203 327.28 25 327.625 25H329.5C329.845 25 330.125 24.7203 330.125 24.375V20.625C330.125 20.2797 329.845 20 329.5 20ZM339.5 12.5H337.625C337.28 12.5 337 12.7797 337 13.125V24.375C337 24.7203 337.28 25 337.625 25H339.5C339.845 25 340.125 24.7203 340.125 24.375V13.125C340.125 12.7797 339.845 12.5 339.5 12.5ZM344.5 8.75H342.625C342.28 8.75 342 9.02969 342 9.375V24.375C342 24.7203 342.28 25 342.625 25H344.5C344.845 25 345.125 24.7203 345.125 24.375V9.375C345.125 9.02969 344.845 8.75 344.5 8.75ZM349.5 5H347.625C347.28 5 347 5.27969 347 5.625V24.375C347 24.7203 347.28 25 347.625 25H349.5C349.845 25 350.125 24.7203 350.125 24.375V5.625C350.125 5.27969 349.845 5 349.5 5Z" fill="white"/>
<path d="M316.801 12.8C309.88 6.39883 299.117 6.40117 292.199 12.8C291.939 13.0406 291.934 13.448 292.185 13.6977L293.523 15.0246C293.762 15.2629 294.148 15.268 294.398 15.0395C300.098 9.81758 308.902 9.81641 314.603 15.0395C314.852 15.268 315.238 15.2625 315.478 15.0246L316.815 13.6977C317.066 13.448 317.061 13.0406 316.801 12.8ZM304.5 20.5C303.119 20.5 302 21.6191 302 23C302 24.3809 303.119 25.5 304.5 25.5C305.881 25.5 307 24.3809 307 23C307 21.6191 305.881 20.5 304.5 20.5ZM312.417 17.2348C307.914 13.2531 301.08 13.2574 296.583 17.2348C296.314 17.473 296.305 17.8867 296.561 18.1391L297.906 19.4668C298.141 19.698 298.518 19.7137 298.768 19.498C302.047 16.6633 306.961 16.6695 310.232 19.498C310.482 19.7137 310.859 19.6984 311.093 19.4668L312.439 18.1391C312.695 17.8867 312.686 17.4727 312.417 17.2348Z" fill="white"/>
<path d="M6.78125 17.7168H6.89258C7.36133 17.7168 7.76367 17.6602 8.09961 17.5469C8.43945 17.4297 8.71875 17.2617 8.9375 17.043C9.15625 16.8242 9.31836 16.5566 9.42383 16.2402C9.5293 15.9199 9.58203 15.5566 9.58203 15.1504V13.5332C9.58203 13.2246 9.55078 12.9531 9.48828 12.7188C9.42969 12.4844 9.34375 12.291 9.23047 12.1387C9.12109 11.9824 8.99219 11.8652 8.84375 11.7871C8.69922 11.709 8.53906 11.6699 8.36328 11.6699C8.17578 11.6699 8.00977 11.7168 7.86523 11.8105C7.7207 11.9004 7.59766 12.0234 7.49609 12.1797C7.39844 12.3359 7.32227 12.5156 7.26758 12.7188C7.2168 12.918 7.19141 13.127 7.19141 13.3457C7.19141 13.5645 7.2168 13.7734 7.26758 13.9727C7.31836 14.168 7.39453 14.3418 7.49609 14.4941C7.59766 14.6426 7.72461 14.7617 7.87695 14.8516C8.0293 14.9375 8.20898 14.9805 8.41602 14.9805C8.61523 14.9805 8.79297 14.9434 8.94922 14.8691C9.10938 14.791 9.24414 14.6895 9.35352 14.5645C9.4668 14.4395 9.55273 14.3008 9.61133 14.1484C9.67383 13.9961 9.70508 13.8418 9.70508 13.6855L10.2617 13.9902C10.2617 14.2637 10.2031 14.5332 10.0859 14.7988C9.96875 15.0645 9.80469 15.3066 9.59375 15.5254C9.38672 15.7402 9.14648 15.9121 8.87305 16.041C8.59961 16.1699 8.30664 16.2344 7.99414 16.2344C7.5957 16.2344 7.24219 16.1621 6.93359 16.0176C6.625 15.8691 6.36328 15.666 6.14844 15.4082C5.9375 15.1465 5.77734 14.8418 5.66797 14.4941C5.55859 14.1465 5.50391 13.7695 5.50391 13.3633C5.50391 12.9492 5.57031 12.5605 5.70312 12.1973C5.83984 11.834 6.0332 11.5137 6.2832 11.2363C6.53711 10.959 6.83984 10.7422 7.19141 10.5859C7.54688 10.4258 7.94141 10.3457 8.375 10.3457C8.80859 10.3457 9.20312 10.4297 9.55859 10.5977C9.91406 10.7656 10.2188 11.0039 10.4727 11.3125C10.7266 11.6172 10.9219 11.9824 11.0586 12.4082C11.1992 12.834 11.2695 13.3066 11.2695 13.8262V14.4121C11.2695 14.9668 11.209 15.4824 11.0879 15.959C10.9707 16.4355 10.793 16.8672 10.5547 17.2539C10.3203 17.6367 10.0273 17.9648 9.67578 18.2383C9.32812 18.5117 8.92383 18.7207 8.46289 18.8652C8.00195 19.0098 7.48633 19.082 6.91602 19.082H6.78125V17.7168ZM12.6289 18.1855C12.6289 17.9355 12.7148 17.7266 12.8867 17.5586C13.0625 17.3906 13.2949 17.3066 13.584 17.3066C13.873 17.3066 14.1035 17.3906 14.2754 17.5586C14.4512 17.7266 14.5391 17.9355 14.5391 18.1855C14.5391 18.4355 14.4512 18.6445 14.2754 18.8125C14.1035 18.9805 13.873 19.0645 13.584 19.0645C13.2949 19.0645 13.0625 18.9805 12.8867 18.8125C12.7148 18.6445 12.6289 18.4355 12.6289 18.1855ZM21.9336 15.8125V17.1367H15.7871L15.7051 16.1113L19.2617 10.4688H20.6035L19.1504 12.9004L17.3809 15.8125H21.9336ZM20.9668 10.4688V19H19.2793V10.4688H20.9668ZM28.5898 13.9844V15.4609C28.5898 16.1016 28.5215 16.6543 28.3848 17.1191C28.248 17.5801 28.0508 17.959 27.793 18.2559C27.5391 18.5488 27.2363 18.7656 26.8848 18.9062C26.5332 19.0469 26.1426 19.1172 25.7129 19.1172C25.3691 19.1172 25.0488 19.0742 24.752 18.9883C24.4551 18.8984 24.1875 18.7598 23.9492 18.5723C23.7148 18.3848 23.5117 18.1484 23.3398 17.8633C23.1719 17.5742 23.043 17.2305 22.9531 16.832C22.8633 16.4336 22.8184 15.9766 22.8184 15.4609V13.9844C22.8184 13.3438 22.8867 12.7949 23.0234 12.3379C23.1641 11.877 23.3613 11.5 23.6152 11.207C23.873 10.9141 24.1777 10.6992 24.5293 10.5625C24.8809 10.4219 25.2715 10.3516 25.7012 10.3516C26.0449 10.3516 26.3633 10.3965 26.6562 10.4863C26.9531 10.5723 27.2207 10.707 27.459 10.8906C27.6973 11.0742 27.9004 11.3105 28.0684 11.5996C28.2363 11.8848 28.3652 12.2266 28.4551 12.625C28.5449 13.0195 28.5898 13.4727 28.5898 13.9844ZM26.8965 15.6836V13.7559C26.8965 13.4473 26.8789 13.1777 26.8438 12.9473C26.8125 12.7168 26.7637 12.5215 26.6973 12.3613C26.6309 12.1973 26.5488 12.0645 26.4512 11.9629C26.3535 11.8613 26.2422 11.7871 26.1172 11.7402C25.9922 11.6934 25.8535 11.6699 25.7012 11.6699C25.5098 11.6699 25.3398 11.707 25.1914 11.7812C25.0469 11.8555 24.9238 11.9746 24.8223 12.1387C24.7207 12.2988 24.6426 12.5137 24.5879 12.7832C24.5371 13.0488 24.5117 13.373 24.5117 13.7559V15.6836C24.5117 15.9922 24.5273 16.2637 24.5586 16.498C24.5938 16.7324 24.6445 16.9336 24.7109 17.1016C24.7812 17.2656 24.8633 17.4004 24.957 17.5059C25.0547 17.6074 25.166 17.6816 25.291 17.7285C25.4199 17.7754 25.5605 17.7988 25.7129 17.7988C25.9004 17.7988 26.0664 17.7617 26.2109 17.6875C26.3594 17.6094 26.4844 17.4883 26.5859 17.3242C26.6914 17.1562 26.7695 16.9375 26.8203 16.668C26.8711 16.3984 26.8965 16.0703 26.8965 15.6836ZM36.2246 15.959H34.0508V14.5879H36.2246C36.5605 14.5879 36.834 14.5332 37.0449 14.4238C37.2559 14.3105 37.4102 14.1543 37.5078 13.9551C37.6055 13.7559 37.6543 13.5312 37.6543 13.2812C37.6543 13.0273 37.6055 12.791 37.5078 12.5723C37.4102 12.3535 37.2559 12.1777 37.0449 12.0449C36.834 11.9121 36.5605 11.8457 36.2246 11.8457H34.6602V19H32.9023V10.4688H36.2246C36.8926 10.4688 37.4648 10.5898 37.9414 10.832C38.4219 11.0703 38.7891 11.4004 39.043 11.8223C39.2969 12.2441 39.4238 12.7266 39.4238 13.2695C39.4238 13.8203 39.2969 14.2969 39.043 14.6992C38.7891 15.1016 38.4219 15.4121 37.9414 15.6309C37.4648 15.8496 36.8926 15.959 36.2246 15.959ZM41.4395 10.4688H42.9277L45.1191 16.7324L47.3105 10.4688H48.7988L45.7168 19H44.5215L41.4395 10.4688ZM40.6367 10.4688H42.1191L42.3887 16.5742V19H40.6367V10.4688ZM48.1191 10.4688H49.6074V19H47.8496V16.5742L48.1191 10.4688Z" fill="white"/>
<ellipse cx="62.4359" cy="168.595" rx="86.5" ry="51.5" transform="rotate(16.2056 62.4359 168.595)" fill="#B4F0ED"/>
<ellipse cx="46.2005" cy="95.0311" rx="72" ry="47.5" transform="rotate(-24.4375 46.2005 95.0311)" fill="#DDFFF9"/>
<rect x="43" y="299" width="273" height="57" rx="12" fill="#FFDDED"/>
<path d="M42.3906 279V263H52.9844V265.789H45.7734V269.602H52.2813V272.391H45.7734V279H42.3906ZM54.7573 279V267H58.0854V279H54.7573ZM56.4291 265.453C55.9343 265.453 55.5099 265.289 55.1557 264.961C54.8067 264.628 54.6323 264.229 54.6323 263.766C54.6323 263.307 54.8067 262.914 55.1557 262.586C55.5099 262.253 55.9343 262.086 56.4291 262.086C56.9239 262.086 57.3458 262.253 57.6948 262.586C58.0489 262.914 58.226 263.307 58.226 263.766C58.226 264.229 58.0489 264.628 57.6948 264.961C57.3458 265.289 56.9239 265.453 56.4291 265.453ZM60.3114 279V267H63.538V269.094H63.663C63.8817 268.349 64.2489 267.786 64.7645 267.406C65.2802 267.021 65.8739 266.828 66.5458 266.828C66.7124 266.828 66.8921 266.839 67.0848 266.859C67.2776 266.88 67.4468 266.909 67.5927 266.945V269.898C67.4364 269.852 67.2203 269.81 66.9442 269.773C66.6682 269.737 66.4156 269.719 66.1864 269.719C65.6968 269.719 65.2593 269.826 64.8739 270.039C64.4937 270.247 64.1916 270.539 63.9677 270.914C63.7489 271.289 63.6395 271.721 63.6395 272.211V279H60.3114ZM78.8577 270.422L75.8109 270.609C75.7588 270.349 75.6468 270.115 75.4749 269.906C75.303 269.693 75.0765 269.523 74.7952 269.398C74.5192 269.268 74.1885 269.203 73.803 269.203C73.2874 269.203 72.8525 269.312 72.4984 269.531C72.1442 269.745 71.9671 270.031 71.9671 270.391C71.9671 270.677 72.0817 270.919 72.3109 271.117C72.54 271.315 72.9333 271.474 73.4905 271.594L75.6624 272.031C76.8291 272.271 77.6989 272.656 78.2718 273.187C78.8447 273.719 79.1312 274.417 79.1312 275.281C79.1312 276.068 78.8994 276.758 78.4359 277.352C77.9775 277.945 77.3473 278.409 76.5452 278.742C75.7484 279.07 74.8291 279.234 73.7874 279.234C72.1989 279.234 70.9333 278.904 69.9905 278.242C69.053 277.576 68.5036 276.669 68.3421 275.523L71.6155 275.352C71.7145 275.836 71.9541 276.206 72.3343 276.461C72.7145 276.711 73.2015 276.836 73.7952 276.836C74.3786 276.836 74.8473 276.724 75.2015 276.5C75.5609 276.271 75.7432 275.977 75.7484 275.617C75.7432 275.315 75.6155 275.068 75.3655 274.875C75.1155 274.677 74.7301 274.526 74.2093 274.422L72.1312 274.008C70.9593 273.773 70.0869 273.367 69.514 272.789C68.9463 272.211 68.6624 271.474 68.6624 270.578C68.6624 269.807 68.8708 269.143 69.2874 268.586C69.7093 268.029 70.3004 267.599 71.0609 267.297C71.8265 266.995 72.7223 266.844 73.7484 266.844C75.264 266.844 76.4567 267.164 77.3265 267.805C78.2015 268.445 78.7119 269.318 78.8577 270.422ZM87.1697 267V269.5H79.9431V267H87.1697ZM81.5838 264.125H84.9119V275.312C84.9119 275.62 84.9588 275.859 85.0525 276.031C85.1463 276.198 85.2765 276.315 85.4431 276.383C85.615 276.451 85.8129 276.484 86.0369 276.484C86.1931 276.484 86.3494 276.471 86.5056 276.445C86.6619 276.414 86.7817 276.391 86.865 276.375L87.3884 278.852C87.2218 278.904 86.9874 278.964 86.6853 279.031C86.3832 279.104 86.016 279.148 85.5838 279.164C84.7817 279.195 84.0785 279.089 83.4744 278.844C82.8754 278.599 82.4093 278.219 82.0759 277.703C81.7426 277.187 81.5785 276.536 81.5838 275.75V264.125ZM106.995 263V279H104.073L97.112 268.93H96.9948V279H93.612V263H96.5807L103.487 273.062H103.628V263H106.995ZM112.709 279.227C111.943 279.227 111.261 279.094 110.662 278.828C110.063 278.557 109.589 278.159 109.24 277.633C108.897 277.102 108.725 276.44 108.725 275.648C108.725 274.982 108.847 274.422 109.092 273.969C109.337 273.516 109.67 273.151 110.092 272.875C110.514 272.599 110.993 272.391 111.529 272.25C112.071 272.109 112.639 272.01 113.232 271.953C113.93 271.88 114.493 271.812 114.92 271.75C115.347 271.682 115.657 271.583 115.85 271.453C116.042 271.323 116.139 271.13 116.139 270.875V270.828C116.139 270.333 115.982 269.951 115.67 269.68C115.363 269.409 114.925 269.273 114.357 269.273C113.759 269.273 113.282 269.406 112.928 269.672C112.574 269.932 112.339 270.26 112.225 270.656L109.147 270.406C109.303 269.677 109.61 269.047 110.068 268.516C110.527 267.979 111.118 267.568 111.842 267.281C112.571 266.99 113.415 266.844 114.373 266.844C115.04 266.844 115.678 266.922 116.287 267.078C116.902 267.234 117.446 267.477 117.92 267.805C118.399 268.133 118.777 268.555 119.053 269.07C119.329 269.581 119.467 270.193 119.467 270.906V279H116.311V277.336H116.217C116.024 277.711 115.766 278.042 115.443 278.328C115.121 278.609 114.732 278.831 114.279 278.992C113.826 279.148 113.303 279.227 112.709 279.227ZM113.662 276.93C114.152 276.93 114.584 276.833 114.959 276.641C115.334 276.443 115.628 276.177 115.842 275.844C116.055 275.51 116.162 275.133 116.162 274.711V273.438C116.058 273.505 115.915 273.568 115.732 273.625C115.555 273.677 115.355 273.727 115.131 273.773C114.907 273.815 114.683 273.854 114.459 273.891C114.235 273.922 114.032 273.951 113.85 273.977C113.459 274.034 113.118 274.125 112.826 274.25C112.535 274.375 112.308 274.544 112.147 274.758C111.985 274.966 111.904 275.227 111.904 275.539C111.904 275.992 112.068 276.339 112.397 276.578C112.73 276.812 113.152 276.93 113.662 276.93ZM121.609 279V267H124.781V269.117H124.921C125.171 268.414 125.588 267.859 126.171 267.453C126.755 267.047 127.453 266.844 128.265 266.844C129.088 266.844 129.789 267.049 130.367 267.461C130.945 267.867 131.33 268.419 131.523 269.117H131.648C131.893 268.43 132.335 267.88 132.976 267.469C133.622 267.052 134.385 266.844 135.265 266.844C136.385 266.844 137.294 267.201 137.992 267.914C138.695 268.622 139.046 269.628 139.046 270.93V279H135.726V271.586C135.726 270.919 135.549 270.419 135.195 270.086C134.841 269.753 134.398 269.586 133.867 269.586C133.263 269.586 132.791 269.779 132.453 270.164C132.114 270.544 131.945 271.047 131.945 271.672V279H128.718V271.516C128.718 270.927 128.549 270.458 128.21 270.109C127.877 269.76 127.437 269.586 126.89 269.586C126.52 269.586 126.187 269.68 125.89 269.867C125.598 270.049 125.367 270.307 125.195 270.641C125.023 270.969 124.937 271.354 124.937 271.797V279H121.609ZM146.704 279.234C145.47 279.234 144.407 278.984 143.517 278.484C142.631 277.979 141.949 277.266 141.47 276.344C140.991 275.417 140.751 274.32 140.751 273.055C140.751 271.82 140.991 270.737 141.47 269.805C141.949 268.872 142.623 268.146 143.493 267.625C144.368 267.104 145.394 266.844 146.571 266.844C147.363 266.844 148.1 266.971 148.782 267.227C149.47 267.477 150.069 267.854 150.579 268.359C151.095 268.865 151.496 269.5 151.782 270.266C152.069 271.026 152.212 271.917 152.212 272.937V273.852H142.079V271.789H149.079C149.079 271.31 148.975 270.885 148.767 270.516C148.558 270.146 148.269 269.857 147.899 269.648C147.535 269.435 147.11 269.328 146.626 269.328C146.121 269.328 145.673 269.445 145.282 269.68C144.897 269.909 144.595 270.219 144.376 270.609C144.157 270.995 144.045 271.424 144.04 271.898V273.859C144.04 274.453 144.149 274.966 144.368 275.398C144.592 275.831 144.907 276.164 145.313 276.398C145.72 276.633 146.201 276.75 146.759 276.75C147.129 276.75 147.467 276.698 147.774 276.594C148.082 276.49 148.345 276.333 148.563 276.125C148.782 275.917 148.949 275.661 149.063 275.359L152.142 275.562C151.985 276.302 151.665 276.948 151.181 277.5C150.701 278.047 150.082 278.474 149.321 278.781C148.566 279.083 147.694 279.234 146.704 279.234Z" fill="black"/>
<path d="M42.3906 279V263H52.9844V265.789H45.7734V269.602H52.2813V272.391H45.7734V279H42.3906ZM54.7573 279V267H58.0854V279H54.7573ZM56.4291 265.453C55.9343 265.453 55.5099 265.289 55.1557 264.961C54.8067 264.628 54.6323 264.229 54.6323 263.766C54.6323 263.307 54.8067 262.914 55.1557 262.586C55.5099 262.253 55.9343 262.086 56.4291 262.086C56.9239 262.086 57.3458 262.253 57.6948 262.586C58.0489 262.914 58.226 263.307 58.226 263.766C58.226 264.229 58.0489 264.628 57.6948 264.961C57.3458 265.289 56.9239 265.453 56.4291 265.453ZM60.3114 279V267H63.538V269.094H63.663C63.8817 268.349 64.2489 267.786 64.7645 267.406C65.2802 267.021 65.8739 266.828 66.5458 266.828C66.7124 266.828 66.8921 266.839 67.0848 266.859C67.2776 266.88 67.4468 266.909 67.5927 266.945V269.898C67.4364 269.852 67.2203 269.81 66.9442 269.773C66.6682 269.737 66.4156 269.719 66.1864 269.719C65.6968 269.719 65.2593 269.826 64.8739 270.039C64.4937 270.247 64.1916 270.539 63.9677 270.914C63.7489 271.289 63.6395 271.721 63.6395 272.211V279H60.3114ZM78.8577 270.422L75.8109 270.609C75.7588 270.349 75.6468 270.115 75.4749 269.906C75.303 269.693 75.0765 269.523 74.7952 269.398C74.5192 269.268 74.1885 269.203 73.803 269.203C73.2874 269.203 72.8525 269.312 72.4984 269.531C72.1442 269.745 71.9671 270.031 71.9671 270.391C71.9671 270.677 72.0817 270.919 72.3109 271.117C72.54 271.315 72.9333 271.474 73.4905 271.594L75.6624 272.031C76.8291 272.271 77.6989 272.656 78.2718 273.187C78.8447 273.719 79.1312 274.417 79.1312 275.281C79.1312 276.068 78.8994 276.758 78.4359 277.352C77.9775 277.945 77.3473 278.409 76.5452 278.742C75.7484 279.07 74.8291 279.234 73.7874 279.234C72.1989 279.234 70.9333 278.904 69.9905 278.242C69.053 277.576 68.5036 276.669 68.3421 275.523L71.6155 275.352C71.7145 275.836 71.9541 276.206 72.3343 276.461C72.7145 276.711 73.2015 276.836 73.7952 276.836C74.3786 276.836 74.8473 276.724 75.2015 276.5C75.5609 276.271 75.7432 275.977 75.7484 275.617C75.7432 275.315 75.6155 275.068 75.3655 274.875C75.1155 274.677 74.7301 274.526 74.2093 274.422L72.1312 274.008C70.9593 273.773 70.0869 273.367 69.514 272.789C68.9463 272.211 68.6624 271.474 68.6624 270.578C68.6624 269.807 68.8708 269.143 69.2874 268.586C69.7093 268.029 70.3004 267.599 71.0609 267.297C71.8265 266.995 72.7223 266.844 73.7484 266.844C75.264 266.844 76.4567 267.164 77.3265 267.805C78.2015 268.445 78.7119 269.318 78.8577 270.422ZM87.1697 267V269.5H79.9431V267H87.1697ZM81.5838 264.125H84.9119V275.312C84.9119 275.62 84.9588 275.859 85.0525 276.031C85.1463 276.198 85.2765 276.315 85.4431 276.383C85.615 276.451 85.8129 276.484 86.0369 276.484C86.1931 276.484 86.3494 276.471 86.5056 276.445C86.6619 276.414 86.7817 276.391 86.865 276.375L87.3884 278.852C87.2218 278.904 86.9874 278.964 86.6853 279.031C86.3832 279.104 86.016 279.148 85.5838 279.164C84.7817 279.195 84.0785 279.089 83.4744 278.844C82.8754 278.599 82.4093 278.219 82.0759 277.703C81.7426 277.187 81.5785 276.536 81.5838 275.75V264.125ZM106.995 263V279H104.073L97.112 268.93H96.9948V279H93.612V263H96.5807L103.487 273.062H103.628V263H106.995ZM112.709 279.227C111.943 279.227 111.261 279.094 110.662 278.828C110.063 278.557 109.589 278.159 109.24 277.633C108.897 277.102 108.725 276.44 108.725 275.648C108.725 274.982 108.847 274.422 109.092 273.969C109.337 273.516 109.67 273.151 110.092 272.875C110.514 272.599 110.993 272.391 111.529 272.25C112.071 272.109 112.639 272.01 113.232 271.953C113.93 271.88 114.493 271.812 114.92 271.75C115.347 271.682 115.657 271.583 115.85 271.453C116.042 271.323 116.139 271.13 116.139 270.875V270.828C116.139 270.333 115.982 269.951 115.67 269.68C115.363 269.409 114.925 269.273 114.357 269.273C113.759 269.273 113.282 269.406 112.928 269.672C112.574 269.932 112.339 270.26 112.225 270.656L109.147 270.406C109.303 269.677 109.61 269.047 110.068 268.516C110.527 267.979 111.118 267.568 111.842 267.281C112.571 266.99 113.415 266.844 114.373 266.844C115.04 266.844 115.678 266.922 116.287 267.078C116.902 267.234 117.446 267.477 117.92 267.805C118.399 268.133 118.777 268.555 119.053 269.07C119.329 269.581 119.467 270.193 119.467 270.906V279H116.311V277.336H116.217C116.024 277.711 115.766 278.042 115.443 278.328C115.121 278.609 114.732 278.831 114.279 278.992C113.826 279.148 113.303 279.227 112.709 279.227ZM113.662 276.93C114.152 276.93 114.584 276.833 114.959 276.641C115.334 276.443 115.628 276.177 115.842 275.844C116.055 275.51 116.162 275.133 116.162 274.711V273.438C116.058 273.505 115.915 273.568 115.732 273.625C115.555 273.677 115.355 273.727 115.131 273.773C114.907 273.815 114.683 273.854 114.459 273.891C114.235 273.922 114.032 273.951 113.85 273.977C113.459 274.034 113.118 274.125 112.826 274.25C112.535 274.375 112.308 274.544 112.147 274.758C111.985 274.966 111.904 275.227 111.904 275.539C111.904 275.992 112.068 276.339 112.397 276.578C112.73 276.812 113.152 276.93 113.662 276.93ZM121.609 279V267H124.781V269.117H124.921C125.171 268.414 125.588 267.859 126.171 267.453C126.755 267.047 127.453 266.844 128.265 266.844C129.088 266.844 129.789 267.049 130.367 267.461C130.945 267.867 131.33 268.419 131.523 269.117H131.648C131.893 268.43 132.335 267.88 132.976 267.469C133.622 267.052 134.385 266.844 135.265 266.844C136.385 266.844 137.294 267.201 137.992 267.914C138.695 268.622 139.046 269.628 139.046 270.93V279H135.726V271.586C135.726 270.919 135.549 270.419 135.195 270.086C134.841 269.753 134.398 269.586 133.867 269.586C133.263 269.586 132.791 269.779 132.453 270.164C132.114 270.544 131.945 271.047 131.945 271.672V279H128.718V271.516C128.718 270.927 128.549 270.458 128.21 270.109C127.877 269.76 127.437 269.586 126.89 269.586C126.52 269.586 126.187 269.68 125.89 269.867C125.598 270.049 125.367 270.307 125.195 270.641C125.023 270.969 124.937 271.354 124.937 271.797V279H121.609ZM146.704 279.234C145.47 279.234 144.407 278.984 143.517 278.484C142.631 277.979 141.949 277.266 141.47 276.344C140.991 275.417 140.751 274.32 140.751 273.055C140.751 271.82 140.991 270.737 141.47 269.805C141.949 268.872 142.623 268.146 143.493 267.625C144.368 267.104 145.394 266.844 146.571 266.844C147.363 266.844 148.1 266.971 148.782 267.227C149.47 267.477 150.069 267.854 150.579 268.359C151.095 268.865 151.496 269.5 151.782 270.266C152.069 271.026 152.212 271.917 152.212 272.937V273.852H142.079V271.789H149.079C149.079 271.31 148.975 270.885 148.767 270.516C148.558 270.146 148.269 269.857 147.899 269.648C147.535 269.435 147.11 269.328 146.626 269.328C146.121 269.328 145.673 269.445 145.282 269.68C144.897 269.909 144.595 270.219 144.376 270.609C144.157 270.995 144.045 271.424 144.04 271.898V273.859C144.04 274.453 144.149 274.966 144.368 275.398C144.592 275.831 144.907 276.164 145.313 276.398C145.72 276.633 146.201 276.75 146.759 276.75C147.129 276.75 147.467 276.698 147.774 276.594C148.082 276.49 148.345 276.333 148.563 276.125C148.782 275.917 148.949 275.661 149.063 275.359L152.142 275.562C151.985 276.302 151.665 276.948 151.181 277.5C150.701 278.047 150.082 278.474 149.321 278.781C148.566 279.083 147.694 279.234 146.704 279.234Z" fill="black"/>
<path d="M42.3906 279V263H52.9844V265.789H45.7734V269.602H52.2813V272.391H45.7734V279H42.3906ZM54.7573 279V267H58.0854V279H54.7573ZM56.4291 265.453C55.9343 265.453 55.5099 265.289 55.1557 264.961C54.8067 264.628 54.6323 264.229 54.6323 263.766C54.6323 263.307 54.8067 262.914 55.1557 262.586C55.5099 262.253 55.9343 262.086 56.4291 262.086C56.9239 262.086 57.3458 262.253 57.6948 262.586C58.0489 262.914 58.226 263.307 58.226 263.766C58.226 264.229 58.0489 264.628 57.6948 264.961C57.3458 265.289 56.9239 265.453 56.4291 265.453ZM60.3114 279V267H63.538V269.094H63.663C63.8817 268.349 64.2489 267.786 64.7645 267.406C65.2802 267.021 65.8739 266.828 66.5458 266.828C66.7124 266.828 66.8921 266.839 67.0848 266.859C67.2776 266.88 67.4468 266.909 67.5927 266.945V269.898C67.4364 269.852 67.2203 269.81 66.9442 269.773C66.6682 269.737 66.4156 269.719 66.1864 269.719C65.6968 269.719 65.2593 269.826 64.8739 270.039C64.4937 270.247 64.1916 270.539 63.9677 270.914C63.7489 271.289 63.6395 271.721 63.6395 272.211V279H60.3114ZM78.8577 270.422L75.8109 270.609C75.7588 270.349 75.6468 270.115 75.4749 269.906C75.303 269.693 75.0765 269.523 74.7952 269.398C74.5192 269.268 74.1885 269.203 73.803 269.203C73.2874 269.203 72.8525 269.312 72.4984 269.531C72.1442 269.745 71.9671 270.031 71.9671 270.391C71.9671 270.677 72.0817 270.919 72.3109 271.117C72.54 271.315 72.9333 271.474 73.4905 271.594L75.6624 272.031C76.8291 272.271 77.6989 272.656 78.2718 273.187C78.8447 273.719 79.1312 274.417 79.1312 275.281C79.1312 276.068 78.8994 276.758 78.4359 277.352C77.9775 277.945 77.3473 278.409 76.5452 278.742C75.7484 279.07 74.8291 279.234 73.7874 279.234C72.1989 279.234 70.9333 278.904 69.9905 278.242C69.053 277.576 68.5036 276.669 68.3421 275.523L71.6155 275.352C71.7145 275.836 71.9541 276.206 72.3343 276.461C72.7145 276.711 73.2015 276.836 73.7952 276.836C74.3786 276.836 74.8473 276.724 75.2015 276.5C75.5609 276.271 75.7432 275.977 75.7484 275.617C75.7432 275.315 75.6155 275.068 75.3655 274.875C75.1155 274.677 74.7301 274.526 74.2093 274.422L72.1312 274.008C70.9593 273.773 70.0869 273.367 69.514 272.789C68.9463 272.211 68.6624 271.474 68.6624 270.578C68.6624 269.807 68.8708 269.143 69.2874 268.586C69.7093 268.029 70.3004 267.599 71.0609 267.297C71.8265 266.995 72.7223 266.844 73.7484 266.844C75.264 266.844 76.4567 267.164 77.3265 267.805C78.2015 268.445 78.7119 269.318 78.8577 270.422ZM87.1697 267V269.5H79.9431V267H87.1697ZM81.5838 264.125H84.9119V275.312C84.9119 275.62 84.9588 275.859 85.0525 276.031C85.1463 276.198 85.2765 276.315 85.4431 276.383C85.615 276.451 85.8129 276.484 86.0369 276.484C86.1931 276.484 86.3494 276.471 86.5056 276.445C86.6619 276.414 86.7817 276.391 86.865 276.375L87.3884 278.852C87.2218 278.904 86.9874 278.964 86.6853 279.031C86.3832 279.104 86.016 279.148 85.5838 279.164C84.7817 279.195 84.0785 279.089 83.4744 278.844C82.8754 278.599 82.4093 278.219 82.0759 277.703C81.7426 277.187 81.5785 276.536 81.5838 275.75V264.125ZM106.995 263V279H104.073L97.112 268.93H96.9948V279H93.612V263H96.5807L103.487 273.062H103.628V263H106.995ZM112.709 279.227C111.943 279.227 111.261 279.094 110.662 278.828C110.063 278.557 109.589 278.159 109.24 277.633C108.897 277.102 108.725 276.44 108.725 275.648C108.725 274.982 108.847 274.422 109.092 273.969C109.337 273.516 109.67 273.151 110.092 272.875C110.514 272.599 110.993 272.391 111.529 272.25C112.071 272.109 112.639 272.01 113.232 271.953C113.93 271.88 114.493 271.812 114.92 271.75C115.347 271.682 115.657 271.583 115.85 271.453C116.042 271.323 116.139 271.13 116.139 270.875V270.828C116.139 270.333 115.982 269.951 115.67 269.68C115.363 269.409 114.925 269.273 114.357 269.273C113.759 269.273 113.282 269.406 112.928 269.672C112.574 269.932 112.339 270.26 112.225 270.656L109.147 270.406C109.303 269.677 109.61 269.047 110.068 268.516C110.527 267.979 111.118 267.568 111.842 267.281C112.571 266.99 113.415 266.844 114.373 266.844C115.04 266.844 115.678 266.922 116.287 267.078C116.902 267.234 117.446 267.477 117.92 267.805C118.399 268.133 118.777 268.555 119.053 269.07C119.329 269.581 119.467 270.193 119.467 270.906V279H116.311V277.336H116.217C116.024 277.711 115.766 278.042 115.443 278.328C115.121 278.609 114.732 278.831 114.279 278.992C113.826 279.148 113.303 279.227 112.709 279.227ZM113.662 276.93C114.152 276.93 114.584 276.833 114.959 276.641C115.334 276.443 115.628 276.177 115.842 275.844C116.055 275.51 116.162 275.133 116.162 274.711V273.438C116.058 273.505 115.915 273.568 115.732 273.625C115.555 273.677 115.355 273.727 115.131 273.773C114.907 273.815 114.683 273.854 114.459 273.891C114.235 273.922 114.032 273.951 113.85 273.977C113.459 274.034 113.118 274.125 112.826 274.25C112.535 274.375 112.308 274.544 112.147 274.758C111.985 274.966 111.904 275.227 111.904 275.539C111.904 275.992 112.068 276.339 112.397 276.578C112.73 276.812 113.152 276.93 113.662 276.93ZM121.609 279V267H124.781V269.117H124.921C125.171 268.414 125.588 267.859 126.171 267.453C126.755 267.047 127.453 266.844 128.265 266.844C129.088 266.844 129.789 267.049 130.367 267.461C130.945 267.867 131.33 268.419 131.523 269.117H131.648C131.893 268.43 132.335 267.88 132.976 267.469C133.622 267.052 134.385 266.844 135.265 266.844C136.385 266.844 137.294 267.201 137.992 267.914C138.695 268.622 139.046 269.628 139.046 270.93V279H135.726V271.586C135.726 270.919 135.549 270.419 135.195 270.086C134.841 269.753 134.398 269.586 133.867 269.586C133.263 269.586 132.791 269.779 132.453 270.164C132.114 270.544 131.945 271.047 131.945 271.672V279H128.718V271.516C128.718 270.927 128.549 270.458 128.21 270.109C127.877 269.76 127.437 269.586 126.89 269.586C126.52 269.586 126.187 269.68 125.89 269.867C125.598 270.049 125.367 270.307 125.195 270.641C125.023 270.969 124.937 271.354 124.937 271.797V279H121.609ZM146.704 279.234C145.47 279.234 144.407 278.984 143.517 278.484C142.631 277.979 141.949 277.266 141.47 276.344C140.991 275.417 140.751 274.32 140.751 273.055C140.751 271.82 140.991 270.737 141.47 269.805C141.949 268.872 142.623 268.146 143.493 267.625C144.368 267.104 145.394 266.844 146.571 266.844C147.363 266.844 148.1 266.971 148.782 267.227C149.47 267.477 150.069 267.854 150.579 268.359C151.095 268.865 151.496 269.5 151.782 270.266C152.069 271.026 152.212 271.917 152.212 272.937V273.852H142.079V271.789H149.079C149.079 271.31 148.975 270.885 148.767 270.516C148.558 270.146 148.269 269.857 147.899 269.648C147.535 269.435 147.11 269.328 146.626 269.328C146.121 269.328 145.673 269.445 145.282 269.68C144.897 269.909 144.595 270.219 144.376 270.609C144.157 270.995 144.045 271.424 144.04 271.898V273.859C144.04 274.453 144.149 274.966 144.368 275.398C144.592 275.831 144.907 276.164 145.313 276.398C145.72 276.633 146.201 276.75 146.759 276.75C147.129 276.75 147.467 276.698 147.774 276.594C148.082 276.49 148.345 276.333 148.563 276.125C148.782 275.917 148.949 275.661 149.063 275.359L152.142 275.562C151.985 276.302 151.665 276.948 151.181 277.5C150.701 278.047 150.082 278.474 149.321 278.781C148.566 279.083 147.694 279.234 146.704 279.234Z" fill="black"/>
<rect x="43" y="435" width="273" height="57" rx="12" fill="#FFDDED"/>
<path d="M42.3906 406H46.5625L50.9688 416.75H51.1563L55.5625 406H59.7344V422H56.4531V411.586H56.3203L52.1797 421.922H49.9453L45.8047 411.547H45.6719V422H42.3906V406ZM62.019 422V410H65.3471V422H62.019ZM63.6909 408.453C63.1961 408.453 62.7716 408.289 62.4174 407.961C62.0685 407.628 61.894 407.229 61.894 406.766C61.894 406.307 62.0685 405.914 62.4174 405.586C62.7716 405.253 63.1961 405.086 63.6909 405.086C64.1857 405.086 64.6075 405.253 64.9565 405.586C65.3107 405.914 65.4877 406.307 65.4877 406.766C65.4877 407.229 65.3107 407.628 64.9565 407.961C64.6075 408.289 64.1857 408.453 63.6909 408.453ZM71.995 422.195C71.0835 422.195 70.258 421.961 69.5184 421.492C68.7841 421.018 68.2007 420.323 67.7684 419.406C67.3414 418.484 67.1278 417.354 67.1278 416.016C67.1278 414.641 67.3492 413.497 67.7919 412.586C68.2346 411.669 68.8231 410.984 69.5575 410.531C70.2971 410.073 71.107 409.844 71.9872 409.844C72.6591 409.844 73.219 409.958 73.6669 410.188C74.12 410.411 74.4846 410.693 74.7606 411.031C75.0419 411.365 75.2554 411.693 75.4013 412.016H75.5028V406H78.8231V422H75.5419V420.078H75.4013C75.245 420.411 75.0236 420.742 74.7372 421.07C74.4559 421.393 74.0888 421.661 73.6356 421.875C73.1877 422.089 72.6408 422.195 71.995 422.195ZM73.0497 419.547C73.5861 419.547 74.0393 419.401 74.4091 419.109C74.7841 418.812 75.0705 418.398 75.2684 417.867C75.4716 417.336 75.5731 416.714 75.5731 416C75.5731 415.286 75.4742 414.667 75.2763 414.141C75.0783 413.615 74.7919 413.208 74.4169 412.922C74.0419 412.635 73.5861 412.492 73.0497 412.492C72.5028 412.492 72.0419 412.641 71.6669 412.937C71.2919 413.234 71.008 413.646 70.8153 414.172C70.6226 414.698 70.5263 415.307 70.5263 416C70.5263 416.698 70.6226 417.315 70.8153 417.852C71.0132 418.383 71.2971 418.799 71.6669 419.102C72.0419 419.398 72.5028 419.547 73.0497 419.547ZM85.5413 422.195C84.6299 422.195 83.8043 421.961 83.0648 421.492C82.3304 421.018 81.7471 420.323 81.3148 419.406C80.8877 418.484 80.6741 417.354 80.6741 416.016C80.6741 414.641 80.8955 413.497 81.3382 412.586C81.7809 411.669 82.3695 410.984 83.1038 410.531C83.8434 410.073 84.6533 409.844 85.5335 409.844C86.2054 409.844 86.7653 409.958 87.2132 410.188C87.6663 410.411 88.0309 410.693 88.307 411.031C88.5882 411.365 88.8017 411.693 88.9476 412.016H89.0491V406H92.3695V422H89.0882V420.078H88.9476C88.7913 420.411 88.57 420.742 88.2835 421.07C88.0023 421.393 87.6351 421.661 87.182 421.875C86.734 422.089 86.1872 422.195 85.5413 422.195ZM86.596 419.547C87.1325 419.547 87.5856 419.401 87.9554 419.109C88.3304 418.812 88.6168 418.398 88.8148 417.867C89.0179 417.336 89.1195 416.714 89.1195 416C89.1195 415.286 89.0205 414.667 88.8226 414.141C88.6247 413.615 88.3382 413.208 87.9632 412.922C87.5882 412.635 87.1325 412.492 86.596 412.492C86.0491 412.492 85.5882 412.641 85.2132 412.937C84.8382 413.234 84.5543 413.646 84.3616 414.172C84.1689 414.698 84.0726 415.307 84.0726 416C84.0726 416.698 84.1689 417.315 84.3616 417.852C84.5596 418.383 84.8434 418.799 85.2132 419.102C85.5882 419.398 86.0491 419.547 86.596 419.547ZM97.9939 406V422H94.6658V406H97.9939ZM105.689 422.234C104.454 422.234 103.392 421.984 102.501 421.484C101.616 420.979 100.933 420.266 100.454 419.344C99.9751 418.417 99.7355 417.32 99.7355 416.055C99.7355 414.82 99.9751 413.737 100.454 412.805C100.933 411.872 101.608 411.146 102.478 410.625C103.353 410.104 104.379 409.844 105.556 409.844C106.348 409.844 107.085 409.971 107.767 410.227C108.454 410.477 109.053 410.854 109.564 411.359C110.079 411.865 110.48 412.5 110.767 413.266C111.053 414.026 111.196 414.917 111.196 415.937V416.852H101.064V414.789H108.064C108.064 414.31 107.96 413.885 107.751 413.516C107.543 413.146 107.254 412.857 106.884 412.648C106.519 412.435 106.095 412.328 105.611 412.328C105.105 412.328 104.657 412.445 104.267 412.68C103.881 412.909 103.579 413.219 103.361 413.609C103.142 413.995 103.03 414.424 103.025 414.898V416.859C103.025 417.453 103.134 417.966 103.353 418.398C103.577 418.831 103.892 419.164 104.298 419.398C104.704 419.633 105.186 419.75 105.743 419.75C106.113 419.75 106.452 419.698 106.759 419.594C107.066 419.49 107.329 419.333 107.548 419.125C107.767 418.917 107.933 418.661 108.048 418.359L111.126 418.562C110.97 419.302 110.65 419.948 110.165 420.5C109.686 421.047 109.066 421.474 108.306 421.781C107.551 422.083 106.678 422.234 105.689 422.234ZM131.025 406V422H128.104L121.143 411.93H121.025V422H117.643V406H120.611L127.518 416.062H127.658V406H131.025ZM136.74 422.227C135.974 422.227 135.292 422.094 134.693 421.828C134.094 421.557 133.62 421.159 133.271 420.633C132.927 420.102 132.755 419.44 132.755 418.648C132.755 417.982 132.878 417.422 133.123 416.969C133.367 416.516 133.701 416.151 134.123 415.875C134.544 415.599 135.024 415.391 135.56 415.25C136.102 415.109 136.669 415.01 137.263 414.953C137.961 414.88 138.524 414.812 138.951 414.75C139.378 414.682 139.688 414.583 139.88 414.453C140.073 414.323 140.169 414.13 140.169 413.875V413.828C140.169 413.333 140.013 412.951 139.701 412.68C139.393 412.409 138.956 412.273 138.388 412.273C137.789 412.273 137.313 412.406 136.959 412.672C136.604 412.932 136.37 413.26 136.255 413.656L133.177 413.406C133.334 412.677 133.641 412.047 134.099 411.516C134.557 410.979 135.149 410.568 135.873 410.281C136.602 409.99 137.445 409.844 138.404 409.844C139.07 409.844 139.709 409.922 140.318 410.078C140.932 410.234 141.477 410.477 141.951 410.805C142.43 411.133 142.807 411.555 143.084 412.07C143.36 412.581 143.498 413.193 143.498 413.906V422H140.341V420.336H140.248C140.055 420.711 139.797 421.042 139.474 421.328C139.151 421.609 138.763 421.831 138.31 421.992C137.857 422.148 137.334 422.227 136.74 422.227ZM137.693 419.93C138.182 419.93 138.615 419.833 138.99 419.641C139.365 419.443 139.659 419.177 139.873 418.844C140.086 418.51 140.193 418.133 140.193 417.711V416.438C140.089 416.505 139.945 416.568 139.763 416.625C139.586 416.677 139.386 416.727 139.162 416.773C138.938 416.815 138.714 416.854 138.49 416.891C138.266 416.922 138.063 416.951 137.88 416.977C137.49 417.034 137.149 417.125 136.857 417.25C136.565 417.375 136.339 417.544 136.177 417.758C136.016 417.966 135.935 418.227 135.935 418.539C135.935 418.992 136.099 419.339 136.427 419.578C136.761 419.812 137.182 419.93 137.693 419.93ZM145.64 422V410H148.811V412.117H148.952C149.202 411.414 149.619 410.859 150.202 410.453C150.785 410.047 151.483 409.844 152.296 409.844C153.119 409.844 153.819 410.049 154.397 410.461C154.976 410.867 155.361 411.419 155.554 412.117H155.679C155.923 411.43 156.366 410.88 157.007 410.469C157.653 410.052 158.416 409.844 159.296 409.844C160.416 409.844 161.325 410.201 162.022 410.914C162.726 411.622 163.077 412.628 163.077 413.93V422H159.757V414.586C159.757 413.919 159.58 413.419 159.226 413.086C158.871 412.753 158.429 412.586 157.897 412.586C157.293 412.586 156.822 412.779 156.483 413.164C156.145 413.544 155.976 414.047 155.976 414.672V422H152.749V414.516C152.749 413.927 152.58 413.458 152.241 413.109C151.908 412.76 151.468 412.586 150.921 412.586C150.551 412.586 150.218 412.68 149.921 412.867C149.629 413.049 149.397 413.307 149.226 413.641C149.054 413.969 148.968 414.354 148.968 414.797V422H145.64ZM170.735 422.234C169.5 422.234 168.438 421.984 167.547 421.484C166.662 420.979 165.98 420.266 165.5 419.344C165.021 418.417 164.782 417.32 164.782 416.055C164.782 414.82 165.021 413.737 165.5 412.805C165.98 411.872 166.654 411.146 167.524 410.625C168.399 410.104 169.425 409.844 170.602 409.844C171.394 409.844 172.131 409.971 172.813 410.227C173.5 410.477 174.099 410.854 174.61 411.359C175.125 411.865 175.526 412.5 175.813 413.266C176.099 414.026 176.243 414.917 176.243 415.937V416.852H166.11V414.789H173.11C173.11 414.31 173.006 413.885 172.797 413.516C172.589 413.146 172.3 412.857 171.93 412.648C171.565 412.435 171.141 412.328 170.657 412.328C170.151 412.328 169.704 412.445 169.313 412.68C168.927 412.909 168.625 413.219 168.407 413.609C168.188 413.995 168.076 414.424 168.071 414.898V416.859C168.071 417.453 168.18 417.966 168.399 418.398C168.623 418.831 168.938 419.164 169.344 419.398C169.75 419.633 170.232 419.75 170.789 419.75C171.159 419.75 171.498 419.698 171.805 419.594C172.112 419.49 172.375 419.333 172.594 419.125C172.813 418.917 172.98 418.661 173.094 418.359L176.172 418.562C176.016 419.302 175.696 419.948 175.211 420.5C174.732 421.047 174.112 421.474 173.352 421.781C172.597 422.083 171.724 422.234 170.735 422.234Z" fill="white"/>
<rect x="43" y="299" width="273" height="57" rx="12" fill="#FFDDED"/>
<path d="M42.3906 279V263H52.9844V265.789H45.7734V269.602H52.2813V272.391H45.7734V279H42.3906ZM54.7573 279V267H58.0854V279H54.7573ZM56.4291 265.453C55.9343 265.453 55.5099 265.289 55.1557 264.961C54.8067 264.628 54.6323 264.229 54.6323 263.766C54.6323 263.307 54.8067 262.914 55.1557 262.586C55.5099 262.253 55.9343 262.086 56.4291 262.086C56.9239 262.086 57.3458 262.253 57.6948 262.586C58.0489 262.914 58.226 263.307 58.226 263.766C58.226 264.229 58.0489 264.628 57.6948 264.961C57.3458 265.289 56.9239 265.453 56.4291 265.453ZM60.3114 279V267H63.538V269.094H63.663C63.8817 268.349 64.2489 267.786 64.7645 267.406C65.2802 267.021 65.8739 266.828 66.5458 266.828C66.7124 266.828 66.8921 266.839 67.0848 266.859C67.2776 266.88 67.4468 266.909 67.5927 266.945V269.898C67.4364 269.852 67.2203 269.81 66.9442 269.773C66.6682 269.737 66.4156 269.719 66.1864 269.719C65.6968 269.719 65.2593 269.826 64.8739 270.039C64.4937 270.247 64.1916 270.539 63.9677 270.914C63.7489 271.289 63.6395 271.721 63.6395 272.211V279H60.3114ZM78.8577 270.422L75.8109 270.609C75.7588 270.349 75.6468 270.115 75.4749 269.906C75.303 269.693 75.0765 269.523 74.7952 269.398C74.5192 269.268 74.1885 269.203 73.803 269.203C73.2874 269.203 72.8525 269.312 72.4984 269.531C72.1442 269.745 71.9671 270.031 71.9671 270.391C71.9671 270.677 72.0817 270.919 72.3109 271.117C72.54 271.315 72.9333 271.474 73.4905 271.594L75.6624 272.031C76.8291 272.271 77.6989 272.656 78.2718 273.187C78.8447 273.719 79.1312 274.417 79.1312 275.281C79.1312 276.068 78.8994 276.758 78.4359 277.352C77.9775 277.945 77.3473 278.409 76.5452 278.742C75.7484 279.07 74.8291 279.234 73.7874 279.234C72.1989 279.234 70.9333 278.904 69.9905 278.242C69.053 277.576 68.5036 276.669 68.3421 275.523L71.6155 275.352C71.7145 275.836 71.9541 276.206 72.3343 276.461C72.7145 276.711 73.2015 276.836 73.7952 276.836C74.3786 276.836 74.8473 276.724 75.2015 276.5C75.5609 276.271 75.7432 275.977 75.7484 275.617C75.7432 275.315 75.6155 275.068 75.3655 274.875C75.1155 274.677 74.7301 274.526 74.2093 274.422L72.1312 274.008C70.9593 273.773 70.0869 273.367 69.514 272.789C68.9463 272.211 68.6624 271.474 68.6624 270.578C68.6624 269.807 68.8708 269.143 69.2874 268.586C69.7093 268.029 70.3004 267.599 71.0609 267.297C71.8265 266.995 72.7223 266.844 73.7484 266.844C75.264 266.844 76.4567 267.164 77.3265 267.805C78.2015 268.445 78.7119 269.318 78.8577 270.422ZM87.1697 267V269.5H79.9431V267H87.1697ZM81.5838 264.125H84.9119V275.312C84.9119 275.62 84.9588 275.859 85.0525 276.031C85.1463 276.198 85.2765 276.315 85.4431 276.383C85.615 276.451 85.8129 276.484 86.0369 276.484C86.1931 276.484 86.3494 276.471 86.5056 276.445C86.6619 276.414 86.7817 276.391 86.865 276.375L87.3884 278.852C87.2218 278.904 86.9874 278.964 86.6853 279.031C86.3832 279.104 86.016 279.148 85.5838 279.164C84.7817 279.195 84.0785 279.089 83.4744 278.844C82.8754 278.599 82.4093 278.219 82.0759 277.703C81.7426 277.187 81.5785 276.536 81.5838 275.75V264.125ZM106.995 263V279H104.073L97.112 268.93H96.9948V279H93.612V263H96.5807L103.487 273.062H103.628V263H106.995ZM112.709 279.227C111.943 279.227 111.261 279.094 110.662 278.828C110.063 278.557 109.589 278.159 109.24 277.633C108.897 277.102 108.725 276.44 108.725 275.648C108.725 274.982 108.847 274.422 109.092 273.969C109.337 273.516 109.67 273.151 110.092 272.875C110.514 272.599 110.993 272.391 111.529 272.25C112.071 272.109 112.639 272.01 113.232 271.953C113.93 271.88 114.493 271.812 114.92 271.75C115.347 271.682 115.657 271.583 115.85 271.453C116.042 271.323 116.139 271.13 116.139 270.875V270.828C116.139 270.333 115.982 269.951 115.67 269.68C115.363 269.409 114.925 269.273 114.357 269.273C113.759 269.273 113.282 269.406 112.928 269.672C112.574 269.932 112.339 270.26 112.225 270.656L109.147 270.406C109.303 269.677 109.61 269.047 110.068 268.516C110.527 267.979 111.118 267.568 111.842 267.281C112.571 266.99 113.415 266.844 114.373 266.844C115.04 266.844 115.678 266.922 116.287 267.078C116.902 267.234 117.446 267.477 117.92 267.805C118.399 268.133 118.777 268.555 119.053 269.07C119.329 269.581 119.467 270.193 119.467 270.906V279H116.311V277.336H116.217C116.024 277.711 115.766 278.042 115.443 278.328C115.121 278.609 114.732 278.831 114.279 278.992C113.826 279.148 113.303 279.227 112.709 279.227ZM113.662 276.93C114.152 276.93 114.584 276.833 114.959 276.641C115.334 276.443 115.628 276.177 115.842 275.844C116.055 275.51 116.162 275.133 116.162 274.711V273.438C116.058 273.505 115.915 273.568 115.732 273.625C115.555 273.677 115.355 273.727 115.131 273.773C114.907 273.815 114.683 273.854 114.459 273.891C114.235 273.922 114.032 273.951 113.85 273.977C113.459 274.034 113.118 274.125 112.826 274.25C112.535 274.375 112.308 274.544 112.147 274.758C111.985 274.966 111.904 275.227 111.904 275.539C111.904 275.992 112.068 276.339 112.397 276.578C112.73 276.812 113.152 276.93 113.662 276.93ZM121.609 279V267H124.781V269.117H124.921C125.171 268.414 125.588 267.859 126.171 267.453C126.755 267.047 127.453 266.844 128.265 266.844C129.088 266.844 129.789 267.049 130.367 267.461C130.945 267.867 131.33 268.419 131.523 269.117H131.648C131.893 268.43 132.335 267.88 132.976 267.469C133.622 267.052 134.385 266.844 135.265 266.844C136.385 266.844 137.294 267.201 137.992 267.914C138.695 268.622 139.046 269.628 139.046 270.93V279H135.726V271.586C135.726 270.919 135.549 270.419 135.195 270.086C134.841 269.753 134.398 269.586 133.867 269.586C133.263 269.586 132.791 269.779 132.453 270.164C132.114 270.544 131.945 271.047 131.945 271.672V279H128.718V271.516C128.718 270.927 128.549 270.458 128.21 270.109C127.877 269.76 127.437 269.586 126.89 269.586C126.52 269.586 126.187 269.68 125.89 269.867C125.598 270.049 125.367 270.307 125.195 270.641C125.023 270.969 124.937 271.354 124.937 271.797V279H121.609ZM146.704 279.234C145.47 279.234 144.407 278.984 143.517 278.484C142.631 277.979 141.949 277.266 141.47 276.344C140.991 275.417 140.751 274.32 140.751 273.055C140.751 271.82 140.991 270.737 141.47 269.805C141.949 268.872 142.623 268.146 143.493 267.625C144.368 267.104 145.394 266.844 146.571 266.844C147.363 266.844 148.1 266.971 148.782 267.227C149.47 267.477 150.069 267.854 150.579 268.359C151.095 268.865 151.496 269.5 151.782 270.266C152.069 271.026 152.212 271.917 152.212 272.937V273.852H142.079V271.789H149.079C149.079 271.31 148.975 270.885 148.767 270.516C148.558 270.146 148.269 269.857 147.899 269.648C147.535 269.435 147.11 269.328 146.626 269.328C146.121 269.328 145.673 269.445 145.282 269.68C144.897 269.909 144.595 270.219 144.376 270.609C144.157 270.995 144.045 271.424 144.04 271.898V273.859C144.04 274.453 144.149 274.966 144.368 275.398C144.592 275.831 144.907 276.164 145.313 276.398C145.72 276.633 146.201 276.75 146.759 276.75C147.129 276.75 147.467 276.698 147.774 276.594C148.082 276.49 148.345 276.333 148.563 276.125C148.782 275.917 148.949 275.661 149.063 275.359L152.142 275.562C151.985 276.302 151.665 276.948 151.181 277.5C150.701 278.047 150.082 278.474 149.321 278.781C148.566 279.083 147.694 279.234 146.704 279.234Z" fill="black"/>
<path d="M42.3906 279V263H52.9844V265.789H45.7734V269.602H52.2813V272.391H45.7734V279H42.3906ZM54.7573 279V267H58.0854V279H54.7573ZM56.4291 265.453C55.9343 265.453 55.5099 265.289 55.1557 264.961C54.8067 264.628 54.6323 264.229 54.6323 263.766C54.6323 263.307 54.8067 262.914 55.1557 262.586C55.5099 262.253 55.9343 262.086 56.4291 262.086C56.9239 262.086 57.3458 262.253 57.6948 262.586C58.0489 262.914 58.226 263.307 58.226 263.766C58.226 264.229 58.0489 264.628 57.6948 264.961C57.3458 265.289 56.9239 265.453 56.4291 265.453ZM60.3114 279V267H63.538V269.094H63.663C63.8817 268.349 64.2489 267.786 64.7645 267.406C65.2802 267.021 65.8739 266.828 66.5458 266.828C66.7124 266.828 66.8921 266.839 67.0848 266.859C67.2776 266.88 67.4468 266.909 67.5927 266.945V269.898C67.4364 269.852 67.2203 269.81 66.9442 269.773C66.6682 269.737 66.4156 269.719 66.1864 269.719C65.6968 269.719 65.2593 269.826 64.8739 270.039C64.4937 270.247 64.1916 270.539 63.9677 270.914C63.7489 271.289 63.6395 271.721 63.6395 272.211V279H60.3114ZM78.8577 270.422L75.8109 270.609C75.7588 270.349 75.6468 270.115 75.4749 269.906C75.303 269.693 75.0765 269.523 74.7952 269.398C74.5192 269.268 74.1885 269.203 73.803 269.203C73.2874 269.203 72.8525 269.312 72.4984 269.531C72.1442 269.745 71.9671 270.031 71.9671 270.391C71.9671 270.677 72.0817 270.919 72.3109 271.117C72.54 271.315 72.9333 271.474 73.4905 271.594L75.6624 272.031C76.8291 272.271 77.6989 272.656 78.2718 273.187C78.8447 273.719 79.1312 274.417 79.1312 275.281C79.1312 276.068 78.8994 276.758 78.4359 277.352C77.9775 277.945 77.3473 278.409 76.5452 278.742C75.7484 279.07 74.8291 279.234 73.7874 279.234C72.1989 279.234 70.9333 278.904 69.9905 278.242C69.053 277.576 68.5036 276.669 68.3421 275.523L71.6155 275.352C71.7145 275.836 71.9541 276.206 72.3343 276.461C72.7145 276.711 73.2015 276.836 73.7952 276.836C74.3786 276.836 74.8473 276.724 75.2015 276.5C75.5609 276.271 75.7432 275.977 75.7484 275.617C75.7432 275.315 75.6155 275.068 75.3655 274.875C75.1155 274.677 74.7301 274.526 74.2093 274.422L72.1312 274.008C70.9593 273.773 70.0869 273.367 69.514 272.789C68.9463 272.211 68.6624 271.474 68.6624 270.578C68.6624 269.807 68.8708 269.143 69.2874 268.586C69.7093 268.029 70.3004 267.599 71.0609 267.297C71.8265 266.995 72.7223 266.844 73.7484 266.844C75.264 266.844 76.4567 267.164 77.3265 267.805C78.2015 268.445 78.7119 269.318 78.8577 270.422ZM87.1697 267V269.5H79.9431V267H87.1697ZM81.5838 264.125H84.9119V275.312C84.9119 275.62 84.9588 275.859 85.0525 276.031C85.1463 276.198 85.2765 276.315 85.4431 276.383C85.615 276.451 85.8129 276.484 86.0369 276.484C86.1931 276.484 86.3494 276.471 86.5056 276.445C86.6619 276.414 86.7817 276.391 86.865 276.375L87.3884 278.852C87.2218 278.904 86.9874 278.964 86.6853 279.031C86.3832 279.104 86.016 279.148 85.5838 279.164C84.7817 279.195 84.0785 279.089 83.4744 278.844C82.8754 278.599 82.4093 278.219 82.0759 277.703C81.7426 277.187 81.5785 276.536 81.5838 275.75V264.125ZM106.995 263V279H104.073L97.112 268.93H96.9948V279H93.612V263H96.5807L103.487 273.062H103.628V263H106.995ZM112.709 279.227C111.943 279.227 111.261 279.094 110.662 278.828C110.063 278.557 109.589 278.159 109.24 277.633C108.897 277.102 108.725 276.44 108.725 275.648C108.725 274.982 108.847 274.422 109.092 273.969C109.337 273.516 109.67 273.151 110.092 272.875C110.514 272.599 110.993 272.391 111.529 272.25C112.071 272.109 112.639 272.01 113.232 271.953C113.93 271.88 114.493 271.812 114.92 271.75C115.347 271.682 115.657 271.583 115.85 271.453C116.042 271.323 116.139 271.13 116.139 270.875V270.828C116.139 270.333 115.982 269.951 115.67 269.68C115.363 269.409 114.925 269.273 114.357 269.273C113.759 269.273 113.282 269.406 112.928 269.672C112.574 269.932 112.339 270.26 112.225 270.656L109.147 270.406C109.303 269.677 109.61 269.047 110.068 268.516C110.527 267.979 111.118 267.568 111.842 267.281C112.571 266.99 113.415 266.844 114.373 266.844C115.04 266.844 115.678 266.922 116.287 267.078C116.902 267.234 117.446 267.477 117.92 267.805C118.399 268.133 118.777 268.555 119.053 269.07C119.329 269.581 119.467 270.193 119.467 270.906V279H116.311V277.336H116.217C116.024 277.711 115.766 278.042 115.443 278.328C115.121 278.609 114.732 278.831 114.279 278.992C113.826 279.148 113.303 279.227 112.709 279.227ZM113.662 276.93C114.152 276.93 114.584 276.833 114.959 276.641C115.334 276.443 115.628 276.177 115.842 275.844C116.055 275.51 116.162 275.133 116.162 274.711V273.438C116.058 273.505 115.915 273.568 115.732 273.625C115.555 273.677 115.355 273.727 115.131 273.773C114.907 273.815 114.683 273.854 114.459 273.891C114.235 273.922 114.032 273.951 113.85 273.977C113.459 274.034 113.118 274.125 112.826 274.25C112.535 274.375 112.308 274.544 112.147 274.758C111.985 274.966 111.904 275.227 111.904 275.539C111.904 275.992 112.068 276.339 112.397 276.578C112.73 276.812 113.152 276.93 113.662 276.93ZM121.609 279V267H124.781V269.117H124.921C125.171 268.414 125.588 267.859 126.171 267.453C126.755 267.047 127.453 266.844 128.265 266.844C129.088 266.844 129.789 267.049 130.367 267.461C130.945 267.867 131.33 268.419 131.523 269.117H131.648C131.893 268.43 132.335 267.88 132.976 267.469C133.622 267.052 134.385 266.844 135.265 266.844C136.385 266.844 137.294 267.201 137.992 267.914C138.695 268.622 139.046 269.628 139.046 270.93V279H135.726V271.586C135.726 270.919 135.549 270.419 135.195 270.086C134.841 269.753 134.398 269.586 133.867 269.586C133.263 269.586 132.791 269.779 132.453 270.164C132.114 270.544 131.945 271.047 131.945 271.672V279H128.718V271.516C128.718 270.927 128.549 270.458 128.21 270.109C127.877 269.76 127.437 269.586 126.89 269.586C126.52 269.586 126.187 269.68 125.89 269.867C125.598 270.049 125.367 270.307 125.195 270.641C125.023 270.969 124.937 271.354 124.937 271.797V279H121.609ZM146.704 279.234C145.47 279.234 144.407 278.984 143.517 278.484C142.631 277.979 141.949 277.266 141.47 276.344C140.991 275.417 140.751 274.32 140.751 273.055C140.751 271.82 140.991 270.737 141.47 269.805C141.949 268.872 142.623 268.146 143.493 267.625C144.368 267.104 145.394 266.844 146.571 266.844C147.363 266.844 148.1 266.971 148.782 267.227C149.47 267.477 150.069 267.854 150.579 268.359C151.095 268.865 151.496 269.5 151.782 270.266C152.069 271.026 152.212 271.917 152.212 272.937V273.852H142.079V271.789H149.079C149.079 271.31 148.975 270.885 148.767 270.516C148.558 270.146 148.269 269.857 147.899 269.648C147.535 269.435 147.11 269.328 146.626 269.328C146.121 269.328 145.673 269.445 145.282 269.68C144.897 269.909 144.595 270.219 144.376 270.609C144.157 270.995 144.045 271.424 144.04 271.898V273.859C144.04 274.453 144.149 274.966 144.368 275.398C144.592 275.831 144.907 276.164 145.313 276.398C145.72 276.633 146.201 276.75 146.759 276.75C147.129 276.75 147.467 276.698 147.774 276.594C148.082 276.49 148.345 276.333 148.563 276.125C148.782 275.917 148.949 275.661 149.063 275.359L152.142 275.562C151.985 276.302 151.665 276.948 151.181 277.5C150.701 278.047 150.082 278.474 149.321 278.781C148.566 279.083 147.694 279.234 146.704 279.234Z" fill="black"/>
<path d="M42.3906 279V263H52.9844V265.789H45.7734V269.602H52.2813V272.391H45.7734V279H42.3906ZM54.7573 279V267H58.0854V279H54.7573ZM56.4291 265.453C55.9343 265.453 55.5099 265.289 55.1557 264.961C54.8067 264.628 54.6323 264.229 54.6323 263.766C54.6323 263.307 54.8067 262.914 55.1557 262.586C55.5099 262.253 55.9343 262.086 56.4291 262.086C56.9239 262.086 57.3458 262.253 57.6948 262.586C58.0489 262.914 58.226 263.307 58.226 263.766C58.226 264.229 58.0489 264.628 57.6948 264.961C57.3458 265.289 56.9239 265.453 56.4291 265.453ZM60.3114 279V267H63.538V269.094H63.663C63.8817 268.349 64.2489 267.786 64.7645 267.406C65.2802 267.021 65.8739 266.828 66.5458 266.828C66.7124 266.828 66.8921 266.839 67.0848 266.859C67.2776 266.88 67.4468 266.909 67.5927 266.945V269.898C67.4364 269.852 67.2203 269.81 66.9442 269.773C66.6682 269.737 66.4156 269.719 66.1864 269.719C65.6968 269.719 65.2593 269.826 64.8739 270.039C64.4937 270.247 64.1916 270.539 63.9677 270.914C63.7489 271.289 63.6395 271.721 63.6395 272.211V279H60.3114ZM78.8577 270.422L75.8109 270.609C75.7588 270.349 75.6468 270.115 75.4749 269.906C75.303 269.693 75.0765 269.523 74.7952 269.398C74.5192 269.268 74.1885 269.203 73.803 269.203C73.2874 269.203 72.8525 269.312 72.4984 269.531C72.1442 269.745 71.9671 270.031 71.9671 270.391C71.9671 270.677 72.0817 270.919 72.3109 271.117C72.54 271.315 72.9333 271.474 73.4905 271.594L75.6624 272.031C76.8291 272.271 77.6989 272.656 78.2718 273.187C78.8447 273.719 79.1312 274.417 79.1312 275.281C79.1312 276.068 78.8994 276.758 78.4359 277.352C77.9775 277.945 77.3473 278.409 76.5452 278.742C75.7484 279.07 74.8291 279.234 73.7874 279.234C72.1989 279.234 70.9333 278.904 69.9905 278.242C69.053 277.576 68.5036 276.669 68.3421 275.523L71.6155 275.352C71.7145 275.836 71.9541 276.206 72.3343 276.461C72.7145 276.711 73.2015 276.836 73.7952 276.836C74.3786 276.836 74.8473 276.724 75.2015 276.5C75.5609 276.271 75.7432 275.977 75.7484 275.617C75.7432 275.315 75.6155 275.068 75.3655 274.875C75.1155 274.677 74.7301 274.526 74.2093 274.422L72.1312 274.008C70.9593 273.773 70.0869 273.367 69.514 272.789C68.9463 272.211 68.6624 271.474 68.6624 270.578C68.6624 269.807 68.8708 269.143 69.2874 268.586C69.7093 268.029 70.3004 267.599 71.0609 267.297C71.8265 266.995 72.7223 266.844 73.7484 266.844C75.264 266.844 76.4567 267.164 77.3265 267.805C78.2015 268.445 78.7119 269.318 78.8577 270.422ZM87.1697 267V269.5H79.9431V267H87.1697ZM81.5838 264.125H84.9119V275.312C84.9119 275.62 84.9588 275.859 85.0525 276.031C85.1463 276.198 85.2765 276.315 85.4431 276.383C85.615 276.451 85.8129 276.484 86.0369 276.484C86.1931 276.484 86.3494 276.471 86.5056 276.445C86.6619 276.414 86.7817 276.391 86.865 276.375L87.3884 278.852C87.2218 278.904 86.9874 278.964 86.6853 279.031C86.3832 279.104 86.016 279.148 85.5838 279.164C84.7817 279.195 84.0785 279.089 83.4744 278.844C82.8754 278.599 82.4093 278.219 82.0759 277.703C81.7426 277.187 81.5785 276.536 81.5838 275.75V264.125ZM106.995 263V279H104.073L97.112 268.93H96.9948V279H93.612V263H96.5807L103.487 273.062H103.628V263H106.995ZM112.709 279.227C111.943 279.227 111.261 279.094 110.662 278.828C110.063 278.557 109.589 278.159 109.24 277.633C108.897 277.102 108.725 276.44 108.725 275.648C108.725 274.982 108.847 274.422 109.092 273.969C109.337 273.516 109.67 273.151 110.092 272.875C110.514 272.599 110.993 272.391 111.529 272.25C112.071 272.109 112.639 272.01 113.232 271.953C113.93 271.88 114.493 271.812 114.92 271.75C115.347 271.682 115.657 271.583 115.85 271.453C116.042 271.323 116.139 271.13 116.139 270.875V270.828C116.139 270.333 115.982 269.951 115.67 269.68C115.363 269.409 114.925 269.273 114.357 269.273C113.759 269.273 113.282 269.406 112.928 269.672C112.574 269.932 112.339 270.26 112.225 270.656L109.147 270.406C109.303 269.677 109.61 269.047 110.068 268.516C110.527 267.979 111.118 267.568 111.842 267.281C112.571 266.99 113.415 266.844 114.373 266.844C115.04 266.844 115.678 266.922 116.287 267.078C116.902 267.234 117.446 267.477 117.92 267.805C118.399 268.133 118.777 268.555 119.053 269.07C119.329 269.581 119.467 270.193 119.467 270.906V279H116.311V277.336H116.217C116.024 277.711 115.766 278.042 115.443 278.328C115.121 278.609 114.732 278.831 114.279 278.992C113.826 279.148 113.303 279.227 112.709 279.227ZM113.662 276.93C114.152 276.93 114.584 276.833 114.959 276.641C115.334 276.443 115.628 276.177 115.842 275.844C116.055 275.51 116.162 275.133 116.162 274.711V273.438C116.058 273.505 115.915 273.568 115.732 273.625C115.555 273.677 115.355 273.727 115.131 273.773C114.907 273.815 114.683 273.854 114.459 273.891C114.235 273.922 114.032 273.951 113.85 273.977C113.459 274.034 113.118 274.125 112.826 274.25C112.535 274.375 112.308 274.544 112.147 274.758C111.985 274.966 111.904 275.227 111.904 275.539C111.904 275.992 112.068 276.339 112.397 276.578C112.73 276.812 113.152 276.93 113.662 276.93ZM121.609 279V267H124.781V269.117H124.921C125.171 268.414 125.588 267.859 126.171 267.453C126.755 267.047 127.453 266.844 128.265 266.844C129.088 266.844 129.789 267.049 130.367 267.461C130.945 267.867 131.33 268.419 131.523 269.117H131.648C131.893 268.43 132.335 267.88 132.976 267.469C133.622 267.052 134.385 266.844 135.265 266.844C136.385 266.844 137.294 267.201 137.992 267.914C138.695 268.622 139.046 269.628 139.046 270.93V279H135.726V271.586C135.726 270.919 135.549 270.419 135.195 270.086C134.841 269.753 134.398 269.586 133.867 269.586C133.263 269.586 132.791 269.779 132.453 270.164C132.114 270.544 131.945 271.047 131.945 271.672V279H128.718V271.516C128.718 270.927 128.549 270.458 128.21 270.109C127.877 269.76 127.437 269.586 126.89 269.586C126.52 269.586 126.187 269.68 125.89 269.867C125.598 270.049 125.367 270.307 125.195 270.641C125.023 270.969 124.937 271.354 124.937 271.797V279H121.609ZM146.704 279.234C145.47 279.234 144.407 278.984 143.517 278.484C142.631 277.979 141.949 277.266 141.47 276.344C140.991 275.417 140.751 274.32 140.751 273.055C140.751 271.82 140.991 270.737 141.47 269.805C141.949 268.872 142.623 268.146 143.493 267.625C144.368 267.104 145.394 266.844 146.571 266.844C147.363 266.844 148.1 266.971 148.782 267.227C149.47 267.477 150.069 267.854 150.579 268.359C151.095 268.865 151.496 269.5 151.782 270.266C152.069 271.026 152.212 271.917 152.212 272.937V273.852H142.079V271.789H149.079C149.079 271.31 148.975 270.885 148.767 270.516C148.558 270.146 148.269 269.857 147.899 269.648C147.535 269.435 147.11 269.328 146.626 269.328C146.121 269.328 145.673 269.445 145.282 269.68C144.897 269.909 144.595 270.219 144.376 270.609C144.157 270.995 144.045 271.424 144.04 271.898V273.859C144.04 274.453 144.149 274.966 144.368 275.398C144.592 275.831 144.907 276.164 145.313 276.398C145.72 276.633 146.201 276.75 146.759 276.75C147.129 276.75 147.467 276.698 147.774 276.594C148.082 276.49 148.345 276.333 148.563 276.125C148.782 275.917 148.949 275.661 149.063 275.359L152.142 275.562C151.985 276.302 151.665 276.948 151.181 277.5C150.701 278.047 150.082 278.474 149.321 278.781C148.566 279.083 147.694 279.234 146.704 279.234Z" fill="white"/>
<path d="M43 584C43 577.373 48.3726 572 55 572H304C310.627 572 316 577.373 316 584V617C316 623.627 310.627 629 304 629H55C48.3726 629 43 623.627 43 617V584Z" fill="#FFDDED"/>
<path d="M51.0703 534.602C51.0078 533.971 50.7396 533.482 50.2656 533.133C49.7917 532.784 49.1484 532.609 48.3359 532.609C47.7839 532.609 47.3177 532.687 46.9375 532.844C46.5573 532.995 46.2656 533.206 46.0625 533.477C45.8646 533.747 45.7656 534.055 45.7656 534.398C45.7552 534.685 45.8151 534.935 45.9453 535.148C46.0807 535.362 46.2656 535.547 46.5 535.703C46.7344 535.854 47.0052 535.987 47.3125 536.102C47.6198 536.211 47.9479 536.305 48.2969 536.383L49.7344 536.727C50.4323 536.883 51.0729 537.091 51.6562 537.352C52.2396 537.612 52.7448 537.932 53.1719 538.312C53.599 538.693 53.9297 539.141 54.1641 539.656C54.4036 540.172 54.526 540.763 54.5312 541.43C54.526 542.409 54.276 543.258 53.7813 543.977C53.2917 544.69 52.5833 545.245 51.6562 545.641C50.7344 546.031 49.6224 546.227 48.3203 546.227C47.0286 546.227 45.9036 546.029 44.9453 545.633C43.9922 545.237 43.2474 544.651 42.7109 543.875C42.1797 543.094 41.901 542.128 41.875 540.977H45.1484C45.1849 541.513 45.3385 541.961 45.6094 542.32C45.8854 542.674 46.2526 542.943 46.7109 543.125C47.1745 543.302 47.6979 543.391 48.2812 543.391C48.8542 543.391 49.3516 543.307 49.7734 543.141C50.2005 542.974 50.5313 542.742 50.7656 542.445C51 542.148 51.1172 541.807 51.1172 541.422C51.1172 541.062 51.0104 540.76 50.7969 540.516C50.5885 540.271 50.2813 540.062 49.875 539.891C49.474 539.719 48.9818 539.562 48.3984 539.422L46.6563 538.984C45.3073 538.656 44.2422 538.143 43.4609 537.445C42.6797 536.747 42.2917 535.807 42.2969 534.625C42.2917 533.656 42.5495 532.81 43.0703 532.086C43.5964 531.362 44.3177 530.797 45.2344 530.391C46.151 529.984 47.1927 529.781 48.3594 529.781C49.5469 529.781 50.5833 529.984 51.4688 530.391C52.3594 530.797 53.0521 531.362 53.5469 532.086C54.0417 532.81 54.2969 533.648 54.3125 534.602H51.0703ZM63.9995 540.891V534H67.3276V546H64.1323V543.82H64.0073C63.7364 544.523 63.2859 545.089 62.6557 545.516C62.0307 545.943 61.2677 546.156 60.3666 546.156C59.5646 546.156 58.8588 545.974 58.2495 545.609C57.6401 545.245 57.1635 544.727 56.8198 544.055C56.4812 543.383 56.3093 542.578 56.3041 541.641V534H59.6323V541.047C59.6375 541.755 59.8276 542.315 60.2026 542.727C60.5776 543.138 61.0802 543.344 61.7104 543.344C62.1114 543.344 62.4864 543.253 62.8354 543.07C63.1843 542.883 63.4656 542.607 63.6791 542.242C63.8979 541.878 64.0047 541.427 63.9995 540.891ZM69.5497 546V534H72.7763V536.094H72.9013C73.12 535.349 73.4872 534.786 74.0028 534.406C74.5184 534.021 75.1122 533.828 75.7841 533.828C75.9507 533.828 76.1304 533.839 76.3231 533.859C76.5158 533.88 76.6851 533.909 76.8309 533.945V536.898C76.6747 536.852 76.4585 536.81 76.1825 536.773C75.9065 536.737 75.6539 536.719 75.4247 536.719C74.9351 536.719 74.4976 536.826 74.1122 537.039C73.732 537.247 73.4299 537.539 73.2059 537.914C72.9872 538.289 72.8778 538.721 72.8778 539.211V546H69.5497ZM81.4398 539.063V546H78.1116V534H81.2835V536.117H81.4241C81.6898 535.419 82.1351 534.867 82.7601 534.461C83.3851 534.049 84.1429 533.844 85.0335 533.844C85.8668 533.844 86.5934 534.026 87.2132 534.391C87.833 534.755 88.3148 535.276 88.6585 535.953C89.0023 536.625 89.1741 537.427 89.1741 538.359V546H85.846V538.953C85.8512 538.219 85.6637 537.646 85.2835 537.234C84.9033 536.818 84.3799 536.609 83.7132 536.609C83.2653 536.609 82.8695 536.706 82.5257 536.898C82.1872 537.091 81.9215 537.372 81.7288 537.742C81.5413 538.107 81.445 538.547 81.4398 539.063ZM94.7791 546.227C94.0134 546.227 93.3311 546.094 92.7322 545.828C92.1332 545.557 91.6593 545.159 91.3103 544.633C90.9666 544.102 90.7947 543.44 90.7947 542.648C90.7947 541.982 90.9171 541.422 91.1619 540.969C91.4067 540.516 91.74 540.151 92.1619 539.875C92.5838 539.599 93.0629 539.391 93.5994 539.25C94.141 539.109 94.7088 539.01 95.3025 538.953C96.0004 538.88 96.5629 538.812 96.99 538.75C97.4171 538.682 97.727 538.583 97.9197 538.453C98.1124 538.323 98.2088 538.13 98.2088 537.875V537.828C98.2088 537.333 98.0525 536.951 97.74 536.68C97.4327 536.409 96.9952 536.273 96.4275 536.273C95.8285 536.273 95.352 536.406 94.9978 536.672C94.6436 536.932 94.4093 537.26 94.2947 537.656L91.2166 537.406C91.3728 536.677 91.6801 536.047 92.1384 535.516C92.5968 534.979 93.1879 534.568 93.9119 534.281C94.641 533.99 95.4848 533.844 96.4431 533.844C97.1098 533.844 97.7478 533.922 98.3572 534.078C98.9718 534.234 99.516 534.477 99.99 534.805C100.469 535.133 100.847 535.555 101.123 536.07C101.399 536.581 101.537 537.193 101.537 537.906V546H98.3806V544.336H98.2869C98.0942 544.711 97.8364 545.042 97.5134 545.328C97.1905 545.609 96.8025 545.831 96.3494 545.992C95.8963 546.148 95.3728 546.227 94.7791 546.227ZM95.7322 543.93C96.2218 543.93 96.6541 543.833 97.0291 543.641C97.4041 543.443 97.6983 543.177 97.9119 542.844C98.1254 542.51 98.2322 542.133 98.2322 541.711V540.438C98.128 540.505 97.9848 540.568 97.8025 540.625C97.6254 540.677 97.4249 540.727 97.2009 540.773C96.977 540.815 96.753 540.854 96.5291 540.891C96.3051 540.922 96.102 540.951 95.9197 540.977C95.5291 541.034 95.1879 541.125 94.8963 541.25C94.6046 541.375 94.378 541.544 94.2166 541.758C94.0551 541.966 93.9744 542.227 93.9744 542.539C93.9744 542.992 94.1384 543.339 94.4666 543.578C94.7999 543.812 95.2218 543.93 95.7322 543.93ZM103.679 546V534H106.851V536.117H106.991C107.241 535.414 107.658 534.859 108.241 534.453C108.825 534.047 109.523 533.844 110.335 533.844C111.158 533.844 111.859 534.049 112.437 534.461C113.015 534.867 113.4 535.419 113.593 536.117H113.718C113.963 535.43 114.405 534.88 115.046 534.469C115.692 534.052 116.455 533.844 117.335 533.844C118.455 533.844 119.364 534.201 120.062 534.914C120.765 535.622 121.116 536.628 121.116 537.93V546H117.796V538.586C117.796 537.919 117.619 537.419 117.265 537.086C116.911 536.753 116.468 536.586 115.937 536.586C115.333 536.586 114.861 536.779 114.523 537.164C114.184 537.544 114.015 538.047 114.015 538.672V546H110.788V538.516C110.788 537.927 110.619 537.458 110.28 537.109C109.947 536.76 109.507 536.586 108.96 536.586C108.59 536.586 108.257 536.68 107.96 536.867C107.668 537.049 107.437 537.307 107.265 537.641C107.093 537.969 107.007 538.354 107.007 538.797V546H103.679ZM128.774 546.234C127.54 546.234 126.477 545.984 125.587 545.484C124.701 544.979 124.019 544.266 123.54 543.344C123.061 542.417 122.821 541.32 122.821 540.055C122.821 538.82 123.061 537.737 123.54 536.805C124.019 535.872 124.693 535.146 125.563 534.625C126.438 534.104 127.464 533.844 128.641 533.844C129.433 533.844 130.17 533.971 130.852 534.227C131.54 534.477 132.139 534.854 132.649 535.359C133.165 535.865 133.566 536.5 133.852 537.266C134.139 538.026 134.282 538.917 134.282 539.937V540.852H124.149V538.789H131.149C131.149 538.31 131.045 537.885 130.837 537.516C130.628 537.146 130.339 536.857 129.969 536.648C129.605 536.435 129.18 536.328 128.696 536.328C128.191 536.328 127.743 536.445 127.352 536.68C126.967 536.909 126.665 537.219 126.446 537.609C126.227 537.995 126.115 538.424 126.11 538.898V540.859C126.11 541.453 126.219 541.966 126.438 542.398C126.662 542.831 126.977 543.164 127.383 543.398C127.79 543.633 128.271 543.75 128.829 543.75C129.199 543.75 129.537 543.698 129.844 543.594C130.152 543.49 130.415 543.333 130.633 543.125C130.852 542.917 131.019 542.661 131.133 542.359L134.212 542.562C134.055 543.302 133.735 543.948 133.251 544.5C132.771 545.047 132.152 545.474 131.391 545.781C130.636 546.083 129.764 546.234 128.774 546.234Z" fill="white"/>
<path d="M340.073 696.048C340.652 695.456 340.641 694.506 340.048 693.927L330.391 684.493C329.799 683.914 328.849 683.926 328.27 684.518C327.691 685.111 327.702 686.06 328.295 686.639L336.879 695.025L328.493 703.609C327.914 704.201 327.926 705.151 328.518 705.73C329.111 706.309 330.06 706.298 330.639 705.705L340.073 696.048ZM168.018 698.5L339.018 696.5L338.982 693.5L167.982 695.5L168.018 698.5Z" fill="white"/>
<path d="M244.773 709V725H241.852L234.891 714.93H234.773V725H231.391V709H234.359L241.266 719.062H241.406V709H244.773ZM252.535 725.234C251.3 725.234 250.238 724.984 249.347 724.484C248.462 723.979 247.779 723.266 247.3 722.344C246.821 721.417 246.581 720.32 246.581 719.055C246.581 717.82 246.821 716.737 247.3 715.805C247.779 714.872 248.454 714.146 249.324 713.625C250.199 713.104 251.225 712.844 252.402 712.844C253.193 712.844 253.93 712.971 254.613 713.227C255.3 713.477 255.899 713.854 256.41 714.359C256.925 714.865 257.326 715.5 257.613 716.266C257.899 717.026 258.042 717.917 258.042 718.937V719.852H247.91V717.789H254.91C254.91 717.31 254.805 716.885 254.597 716.516C254.389 716.146 254.1 715.857 253.73 715.648C253.365 715.435 252.941 715.328 252.456 715.328C251.951 715.328 251.503 715.445 251.113 715.68C250.727 715.909 250.425 716.219 250.206 716.609C249.988 716.995 249.876 717.424 249.871 717.898V719.859C249.871 720.453 249.98 720.966 250.199 721.398C250.423 721.831 250.738 722.164 251.144 722.398C251.55 722.633 252.032 722.75 252.589 722.75C252.959 722.75 253.298 722.698 253.605 722.594C253.912 722.49 254.175 722.333 254.394 722.125C254.613 721.917 254.779 721.661 254.894 721.359L257.972 721.562C257.816 722.302 257.496 722.948 257.011 723.5C256.532 724.047 255.912 724.474 255.152 724.781C254.397 725.083 253.524 725.234 252.535 725.234ZM262.341 713L264.544 717.195L266.802 713H270.216L266.739 719L270.309 725H266.911L264.544 720.852L262.216 725H258.778L262.341 719L258.903 713H262.341ZM278.135 713V715.5H270.909V713H278.135ZM272.549 710.125H275.877V721.312C275.877 721.62 275.924 721.859 276.018 722.031C276.112 722.198 276.242 722.315 276.409 722.383C276.58 722.451 276.778 722.484 277.002 722.484C277.159 722.484 277.315 722.471 277.471 722.445C277.627 722.414 277.747 722.391 277.83 722.375L278.354 724.852C278.187 724.904 277.953 724.964 277.651 725.031C277.349 725.104 276.981 725.148 276.549 725.164C275.747 725.195 275.044 725.089 274.44 724.844C273.841 724.599 273.375 724.219 273.041 723.703C272.708 723.187 272.544 722.536 272.549 721.75V710.125Z" fill="white"/>
<path d="M154.276 130V103.818H171.611V108.382H159.811V114.621H170.46V119.185H159.811V130H154.276ZM179.958 103.818V130H174.512V103.818H179.958ZM189.2 130.371C187.947 130.371 186.831 130.153 185.85 129.719C184.87 129.276 184.095 128.624 183.524 127.763C182.961 126.893 182.68 125.811 182.68 124.516C182.68 123.425 182.88 122.509 183.281 121.767C183.681 121.026 184.227 120.429 184.917 119.977C185.608 119.526 186.392 119.185 187.27 118.955C188.156 118.724 189.085 118.562 190.056 118.469C191.198 118.349 192.119 118.239 192.818 118.136C193.517 118.026 194.024 117.864 194.339 117.651C194.654 117.437 194.812 117.122 194.812 116.705V116.628C194.812 115.818 194.556 115.192 194.045 114.749C193.542 114.305 192.826 114.084 191.897 114.084C190.917 114.084 190.137 114.301 189.558 114.736C188.978 115.162 188.595 115.699 188.407 116.347L183.37 115.938C183.626 114.744 184.129 113.713 184.879 112.844C185.629 111.966 186.596 111.293 187.781 110.824C188.974 110.347 190.355 110.108 191.923 110.108C193.014 110.108 194.058 110.236 195.055 110.491C196.061 110.747 196.951 111.143 197.727 111.68C198.511 112.217 199.129 112.908 199.581 113.751C200.032 114.587 200.258 115.588 200.258 116.756V130H195.093V127.277H194.94C194.625 127.891 194.203 128.432 193.674 128.901C193.146 129.361 192.511 129.723 191.77 129.987C191.028 130.243 190.172 130.371 189.2 130.371ZM190.76 126.612C191.561 126.612 192.268 126.455 192.882 126.139C193.495 125.815 193.977 125.381 194.326 124.835C194.676 124.29 194.85 123.672 194.85 122.982V120.898C194.68 121.009 194.446 121.111 194.147 121.205C193.858 121.29 193.529 121.371 193.163 121.447C192.797 121.516 192.43 121.58 192.064 121.639C191.697 121.69 191.365 121.737 191.066 121.78C190.427 121.874 189.869 122.023 189.392 122.227C188.914 122.432 188.544 122.709 188.279 123.058C188.015 123.399 187.883 123.825 187.883 124.337C187.883 125.078 188.152 125.645 188.689 126.037C189.234 126.42 189.924 126.612 190.76 126.612ZM214.208 110.364V114.455H202.383V110.364H214.208ZM205.067 105.659H210.513V123.966C210.513 124.469 210.59 124.861 210.743 125.142C210.897 125.415 211.11 125.607 211.383 125.717C211.664 125.828 211.988 125.884 212.354 125.884C212.61 125.884 212.866 125.862 213.121 125.82C213.377 125.768 213.573 125.73 213.709 125.705L214.566 129.757C214.293 129.842 213.91 129.94 213.415 130.051C212.921 130.17 212.32 130.243 211.613 130.268C210.3 130.32 209.15 130.145 208.161 129.744C207.181 129.344 206.418 128.722 205.873 127.878C205.327 127.034 205.059 125.969 205.067 124.682V105.659ZM241.197 116.909C241.197 119.764 240.656 122.193 239.574 124.196C238.5 126.199 237.034 127.729 235.176 128.786C233.327 129.834 231.247 130.358 228.937 130.358C226.611 130.358 224.523 129.83 222.673 128.773C220.824 127.716 219.362 126.186 218.288 124.183C217.214 122.18 216.678 119.756 216.678 116.909C216.678 114.054 217.214 111.625 218.288 109.622C219.362 107.619 220.824 106.094 222.673 105.045C224.523 103.989 226.611 103.46 228.937 103.46C231.247 103.46 233.327 103.989 235.176 105.045C237.034 106.094 238.5 107.619 239.574 109.622C240.656 111.625 241.197 114.054 241.197 116.909ZM235.585 116.909C235.585 115.06 235.308 113.5 234.754 112.23C234.209 110.96 233.437 109.997 232.44 109.341C231.443 108.685 230.276 108.357 228.937 108.357C227.599 108.357 226.432 108.685 225.435 109.341C224.437 109.997 223.662 110.96 223.108 112.23C222.562 113.5 222.29 115.06 222.29 116.909C222.29 118.759 222.562 120.318 223.108 121.588C223.662 122.858 224.437 123.821 225.435 124.477C226.432 125.134 227.599 125.462 228.937 125.462C230.276 125.462 231.443 125.134 232.44 124.477C233.437 123.821 234.209 122.858 234.754 121.588C235.308 120.318 235.585 118.759 235.585 116.909ZM244.578 103.818H251.405L258.615 121.409H258.922L266.132 103.818H272.959V130H267.589V112.959H267.372L260.596 129.872H256.94L250.165 112.895H249.947V130H244.578V103.818ZM282.296 130.371C281.044 130.371 279.927 130.153 278.947 129.719C277.967 129.276 277.191 128.624 276.62 127.763C276.058 126.893 275.777 125.811 275.777 124.516C275.777 123.425 275.977 122.509 276.377 121.767C276.778 121.026 277.323 120.429 278.014 119.977C278.704 119.526 279.488 119.185 280.366 118.955C281.252 118.724 282.181 118.562 283.153 118.469C284.295 118.349 285.216 118.239 285.914 118.136C286.613 118.026 287.12 117.864 287.436 117.651C287.751 117.437 287.909 117.122 287.909 116.705V116.628C287.909 115.818 287.653 115.192 287.142 114.749C286.639 114.305 285.923 114.084 284.994 114.084C284.014 114.084 283.234 114.301 282.654 114.736C282.075 115.162 281.691 115.699 281.504 116.347L276.467 115.938C276.723 114.744 277.225 113.713 277.975 112.844C278.725 111.966 279.693 111.293 280.877 110.824C282.071 110.347 283.451 110.108 285.019 110.108C286.11 110.108 287.154 110.236 288.152 110.491C289.157 110.747 290.048 111.143 290.823 111.68C291.608 112.217 292.225 112.908 292.677 113.751C293.129 114.587 293.355 115.588 293.355 116.756V130H288.19V127.277H288.037C287.721 127.891 287.299 128.432 286.771 128.901C286.243 129.361 285.608 129.723 284.866 129.987C284.125 130.243 283.268 130.371 282.296 130.371ZM283.856 126.612C284.657 126.612 285.365 126.455 285.978 126.139C286.592 125.815 287.073 125.381 287.423 124.835C287.772 124.29 287.947 123.672 287.947 122.982V120.898C287.777 121.009 287.542 121.111 287.244 121.205C286.954 121.29 286.626 121.371 286.26 121.447C285.893 121.516 285.527 121.58 285.16 121.639C284.794 121.69 284.461 121.737 284.163 121.78C283.524 121.874 282.966 122.023 282.488 122.227C282.011 122.432 281.64 122.709 281.376 123.058C281.112 123.399 280.98 123.825 280.98 124.337C280.98 125.078 281.248 125.645 281.785 126.037C282.331 126.42 283.021 126.612 283.856 126.612ZM307.304 110.364V114.455H295.479V110.364H307.304ZM298.164 105.659H303.61V123.966C303.61 124.469 303.687 124.861 303.84 125.142C303.993 125.415 304.206 125.607 304.479 125.717C304.76 125.828 305.084 125.884 305.451 125.884C305.706 125.884 305.962 125.862 306.218 125.82C306.474 125.768 306.67 125.73 306.806 125.705L307.662 129.757C307.39 129.842 307.006 129.94 306.512 130.051C306.018 130.17 305.417 130.243 304.709 130.268C303.397 130.32 302.246 130.145 301.258 129.744C300.277 129.344 299.515 128.722 298.969 127.878C298.424 127.034 298.155 125.969 298.164 124.682V105.659ZM318.87 130.384C316.85 130.384 315.111 129.974 313.654 129.156C312.205 128.33 311.089 127.162 310.305 125.653C309.521 124.136 309.128 122.342 309.128 120.271C309.128 118.251 309.521 116.479 310.305 114.953C311.089 113.428 312.192 112.239 313.616 111.386C315.048 110.534 316.727 110.108 318.653 110.108C319.948 110.108 321.154 110.317 322.271 110.734C323.396 111.143 324.376 111.761 325.211 112.588C326.055 113.415 326.711 114.455 327.18 115.707C327.648 116.952 327.883 118.409 327.883 120.08V121.575H311.302V118.2H322.756C322.756 117.416 322.586 116.722 322.245 116.116C321.904 115.511 321.431 115.038 320.826 114.697C320.229 114.348 319.535 114.173 318.742 114.173C317.915 114.173 317.182 114.365 316.543 114.749C315.913 115.124 315.418 115.631 315.06 116.27C314.702 116.901 314.519 117.604 314.511 118.379V121.588C314.511 122.56 314.69 123.399 315.048 124.107C315.414 124.814 315.93 125.359 316.594 125.743C317.259 126.126 318.048 126.318 318.959 126.318C319.565 126.318 320.119 126.233 320.621 126.062C321.124 125.892 321.555 125.636 321.913 125.295C322.271 124.955 322.543 124.537 322.731 124.043L327.768 124.375C327.512 125.585 326.988 126.642 326.195 127.545C325.411 128.44 324.397 129.139 323.153 129.642C321.917 130.136 320.489 130.384 318.87 130.384Z" fill="#FF0A0A"/>
</g>
<defs>
<clipPath id="clip0_2_2">
<rect width="360" height="800" fill="white"/>
</clipPath>
</defs>
</svg>
